# xmcd CD database file
# Copyright (C) 1993-1996 Ti Kan
#
# Track frame offsets:
#	150
#	8680
#	23177
#	37712
#	51057
#	69062
#	83960
#	93920
#	106322
#	139612
#	155235
#	166075
#	177512
#	196645
#	216065
#	228130
#	237892
#	257632
#
# Disc length: 3773 seconds
#
# Revision: 1
# Processed by: cddbd v1.4b41PL1 Copyright (c) Steve Scherf et al.
# Submitted via: CDValet v3.01 - Copyright (c) 1997 Greg Leichner
#
DISCID=d30ebb12
DTITLE=Adventures In Music - #58 Fiddlers and Pickers
DYEAR=1900
DGENRE=
TTITLE0=Silver Bell  |  Joe Stephenson: Moonlight on the Colorado
TTITLE1=Saratoga Hornpipe  |  Clear Fork: No Hard Times
TTITLE2=Old-Time Medley  |  David Holt: Grandfather's Greatest Hits
TTITLE3=Banish Misfortune  |  Michael J. Miles: Counterpoint
TTITLE4=The Cottage in the Grove  |  Arty McGlynn/Nollaig Casey: Lead the Knav
TTITLE4=e
TTITLE5=Up on a Mountain  |  Banjo Dan and the Mid-Nite Plowboys
TTITLE6=Santa Claus  |  Boiled Buzzards: Fine Dining
TTITLE7=Nola  |  Muriel Anderson: Heartstrings
TTITLE8=(Medley) Green Leaf Fancy - The Fields of November - Gonna Go Huntin' fo
TTITLE8=r the Buffalo  |  Norman and Nancy Blake: Just Gimmie Somethin' I'm Used
TTITLE8=To
TTITLE9=Arkansas Traveler  |  Wayne Erbsen: Southern Mountain Classics
TTITLE10=Westphalia Waltz  |  Joe Stephenson: Moonlight on the Colorado
TTITLE11=Streamline Cannonball  |  Clear Fork: No Hard Times
TTITLE12=The Medicine Show  |  Michael J. Miles: Counterpoint
TTITLE13=A Lucky Man  |  Kukuruza: A Russian Country Bluegrass Band
TTITLE14=Monkey on a Dogcart  |  Boiled Buzzaeds: Fine Dining
TTITLE15=Reel and Rock  |  David Holt: Reel and Rock
TTITLE16=Irish Medley  |  Muriel Anderson: Heartstrings
TTITLE17=Low Tide  |  Peter Knight: An Ancient Cause
EXTD=
EXTT0=
EXTT1=
EXTT2=
EXTT3=
EXTT4=
EXTT5=
EXTT6=
EXTT7=
EXTT8=
EXTT9=
EXTT10=
EXTT11=
EXTT12=
EXTT13=
EXTT14=
EXTT15=
EXTT16=
EXTT17=
PLAYORDER=
